<?xml version="1.0" encoding="utf-8"?>
<!-- Generator: Adobe Illustrator 24.3.0, SVG Export Plug-In . SVG Version: 6.00 Build 0)  -->
<svg version="1.1"
	 id="svg2" xmlns:cc="http://creativecommons.org/ns#" xmlns:dc="http://purl.org/dc/elements/1.1/" xmlns:rdf="http://www.w3.org/1999/02/22-rdf-syntax-ns#" xmlns:svg="http://www.w3.org/2000/svg"
	 xmlns="http://www.w3.org/2000/svg" xmlns:xlink="http://www.w3.org/1999/xlink" x="0px" y="0px" viewBox="0 0 47.5 47.5"
	 style="enable-background:new 0 0 47.5 47.5;" xml:space="preserve">
<style type="text/css">
	.st0{clip-path:url(#SVGID_2_);}
	.st1{fill:#66757F;}
	.st2{fill:#292F33;}
	.st3{fill:#55ACEE;}
</style>
<g id="g10" transform="matrix(1.25,0,0,-1.25,0,47.5)">
	<g id="g12">
		<g>
			<defs>
				<rect id="SVGID_1_" x="-4.8" y="-4.7" width="47.5" height="47.5"/>
			</defs>
			<clipPath id="SVGID_2_">
				<use xlink:href="#SVGID_1_"  style="overflow:visible;"/>
			</clipPath>
			<g id="g14" class="st0">
				<g id="g20" transform="translate(19,37)">
					<path id="path22" class="st1" d="M0,0c-8.3,0-15-6.7-15-15v-9h3v9C-12-8-6.7-2.8,0-2.8C6.7-2.8,12-8,12-15v-10l3,1v9
						C15-6.7,8.3,0,0,0"/>
				</g>
				<g id="g24" transform="translate(7,10)">
					<path id="path26" class="st2" d="M0,0c0-1.1-0.9-2-2-2h-2c-1.1,0-2,0.9-2,2v9c0,1.1,0.9,2,2,2h2c1.1,0,2-0.9,2-2V0z"/>
				</g>
				<g id="g28" transform="translate(37,10)">
					<path id="path30" class="st2" d="M0,0c0-1.1-0.9-2-2-2h-2c-1.1,0-2,0.9-2,2v9c0,1.1,0.9,2,2,2h2c1.1,0,2-0.9,2-2V0z"/>
				</g>
				<g id="g32" transform="translate(20.1816,26.9839)">
					<path id="path34" class="st3" d="M0,0l-6.4-1.3c-0.4-0.1-0.8-0.5-0.8-1V-4v-2.1v-12.4c-0.6,0.2-1.3,0.4-2.1,0.4
						c-2.8,0-5-1.8-5-3.9c0-2.2,2.3-3.8,5-3.8c2.7,0,5,1.9,5.1,3.9v15.6L0-5.5c0.4,0.1,0.8,0.5,0.8,1v3.8C0.8-0.2,0.4,0.1,0,0"/>
				</g>
				<g id="g36" transform="translate(28.1816,23.8325)">
					<path id="path38" class="st3" d="M0,0l-4.3-0.9c-0.4-0.1-0.9-0.5-0.9-1v-0.9v-1.4v-9.1c0,0.2-0.9,0.2-1.4,0.2
						c-2,0-3.6-1.3-3.6-2.9c0-1.6,1.7-2.9,3.7-2.9s3.7,1.3,3.7,2.9c0,0.4-0.1,0.8-0.3,1.2v10.1L0-4c0.4,0.1,0.8,0.5,0.8,1v2.3
						C0.8-0.2,0.4,0.1,0,0"/>
				</g>
			</g>
		</g>
	</g>
</g>
</svg>
