<?xml version="1.0" encoding="utf-8"?>
<!-- Generator: Adobe Illustrator 24.3.0, SVG Export Plug-In . SVG Version: 6.00 Build 0)  -->
<svg version="1.1"
	 id="svg2" xmlns:cc="http://creativecommons.org/ns#" xmlns:dc="http://purl.org/dc/elements/1.1/" xmlns:rdf="http://www.w3.org/1999/02/22-rdf-syntax-ns#" xmlns:svg="http://www.w3.org/2000/svg"
	 xmlns="http://www.w3.org/2000/svg" xmlns:xlink="http://www.w3.org/1999/xlink" x="0px" y="0px" viewBox="0 0 47.5 47.5"
	 style="enable-background:new 0 0 47.5 47.5;" xml:space="preserve">
<style type="text/css">
	.st0{clip-path:url(#SVGID_2_);}
	.st1{fill:#9AAAB4;}
	.st2{fill:#292F33;}
</style>
<g id="g10" transform="matrix(1.25,0,0,-1.25,0,47.5)">
	<g id="g12">
		<g>
			<defs>
				<rect id="SVGID_1_" x="-4.8" y="-4.7" width="47.5" height="47.5"/>
			</defs>
			<clipPath id="SVGID_2_">
				<use xlink:href="#SVGID_1_"  style="overflow:visible;"/>
			</clipPath>
			<g id="g14" class="st0">
				<g id="g20" transform="translate(12.8584,20.7363)">
					<path id="path22" class="st1" d="M0,0c0.4-0.4,0.4-1,0-1.4s-1-0.4-1.4,0l-8.5,8.5c-0.4,0.4-0.4,1,0,1.4c0.4,0.4,1,0.4,1.4,0
						L0,0z"/>
				</g>
				<g id="g24" transform="translate(19.9297,27.8071)">
					<path id="path26" class="st1" d="M0,0c0.4-0.4,0.4-1,0-1.4s-1-0.4-1.4,0l-8.5,8.5c-0.4,0.4-0.4,1,0,1.4c0.4,0.4,1,0.4,1.4,0
						L0,0z"/>
				</g>
				<g id="g28" transform="translate(35,1)">
					<path id="path30" class="st2" d="M0,0c0,5-2.6,8.6-4.6,10.6c0.9,1.5,0.7,3.5-0.6,4.8l-1.1,1.1c0.4,1.3,0,2.8-1,3.9l-4.9,4.9
						c0.8,0.8,0.8,2,0,2.8c-0.8,0.8-2,0.8-2.8,0l-2.8-2.8c0,0,0,0,0,0l-4.2-4.2l-2.8-2.8c-0.8-0.8-0.8-2,0-2.8c0.8-0.8,2-0.8,2.8,0
						l5-4.9c1-1,2.5-1.4,3.8-1l1.1-1.1c1.3-1.3,3.3-1.5,4.9-0.6C-5.9,6.3-4,3.6-4,0H0z"/>
				</g>
			</g>
		</g>
	</g>
</g>
</svg>
