<?xml version="1.0" encoding="utf-8"?>
<!-- Generator: Adobe Illustrator 24.3.0, SVG Export Plug-In . SVG Version: 6.00 Build 0)  -->
<svg version="1.1" id="图层_1" xmlns="http://www.w3.org/2000/svg" xmlns:xlink="http://www.w3.org/1999/xlink" x="0px" y="0px"
	 viewBox="0 0 36 36" style="enable-background:new 0 0 36 36;" xml:space="preserve">
<style type="text/css">
	.st0{fill:#A4523A;}
	.st1{fill:#C1694F;}
	.st2{fill:#D99E82;}
</style>
<path class="st0" d="M12,20c-1.1,0-2,0.9-2,2v10c0,1.1,0.9,2,2,2s2-0.9,2-2V22C14,20.9,13.1,20,12,20z M30,20c-1.1,0-2,0.9-2,2v10
	c0,1.1,0.9,2,2,2s2-0.9,2-2V22C32,20.9,31.1,20,30,20z"/>
<path class="st1" d="M13,2h16v8H13V2z"/>
<path class="st1" d="M16,9h2v13h-2V9z M20,9h2v13h-2V9z M24,9h2v13h-2V9z M7,23c-1.1,0-2,0.9-2,2v9c0,1.1,0.9,2,2,2s2-0.9,2-2v-9
	C9,23.9,8.1,23,7,23z"/>
<path class="st1" d="M25,21c-1.1,0-2,0.9-2,2v11c0,1.1,0.9,2,2,2s2-0.9,2-2V23C27,21.9,26.1,21,25,21z M12,0c-1.1,0-2,0.9-2,2v20h4
	V2C14,0.9,13.1,0,12,0z M30,0c-1.1,0-2,0.9-2,2v20h4V2C32,0.9,31.1,0,30,0z"/>
<path class="st0" d="M14,2h1v8h-1V2z M28,10h-1V2h1V10z"/>
<path class="st2" d="M30.8,20H10.3c-0.2,0-0.4,0.1-0.6,0.2l-6,3c0,0,22.7,2.4,24.7,2.4l3-2.3c0.3-0.2,0.5-0.6,0.5-1v-1.2
	C32,20.6,31.4,20,30.8,20z"/>
<path class="st0" d="M16,10h2v1h-2V10z M5,26h4v1H5V26z M23,26h4v1h-4V26z M20,10h2v1h-2V10z M24,10h2v1h-2V10z"/>
<path class="st1" d="M27.4,26H4.6C3.7,26,3,25.3,3,24.5S3.7,23,4.6,23h22.9c0.9,0,1.6,0.7,1.6,1.5S28.3,26,27.4,26z"/>
</svg>
