<?xml version="1.0" encoding="utf-8"?>
<!-- Generator: Adobe Illustrator 24.3.0, SVG Export Plug-In . SVG Version: 6.00 Build 0)  -->
<svg version="1.1"
	 id="svg2" xmlns:cc="http://creativecommons.org/ns#" xmlns:dc="http://purl.org/dc/elements/1.1/" xmlns:rdf="http://www.w3.org/1999/02/22-rdf-syntax-ns#" xmlns:svg="http://www.w3.org/2000/svg"
	 xmlns="http://www.w3.org/2000/svg" xmlns:xlink="http://www.w3.org/1999/xlink" x="0px" y="0px" viewBox="0 0 47.5 47.5"
	 style="enable-background:new 0 0 47.5 47.5;" xml:space="preserve">
<style type="text/css">
	.st0{clip-path:url(#SVGID_2_);}
	.st1{fill:#414042;}
</style>
<g id="g10" transform="matrix(1.25,0,0,-1.25,0,47.5)">
	<g id="g12">
		<g>
			<defs>
				<rect id="SVGID_1_" x="-4.8" y="-4.7" width="47.5" height="47.5"/>
			</defs>
			<clipPath id="SVGID_2_">
				<use xlink:href="#SVGID_1_"  style="overflow:visible;"/>
			</clipPath>
			<g id="g14" class="st0">
				<g id="g20" transform="translate(32,22)">
					<path id="path22" class="st1" d="M0,0h-10v10c0,1.7-1.3,3-3,3s-3-1.3-3-3V0h-10c-1.7,0-3-1.3-3-3s1.3-3,3-3h10v-10
						c0-1.7,1.3-3,3-3s3,1.3,3,3v10H0c1.7,0,3,1.3,3,3S1.7,0,0,0"/>
				</g>
			</g>
		</g>
	</g>
</g>
</svg>
