<?xml version="1.0" encoding="utf-8"?>
<!-- Generator: Adobe Illustrator 24.1.1, SVG Export Plug-In . SVG Version: 6.00 Build 0)  -->
<svg version="1.1"
	 id="svg2" xmlns:cc="http://creativecommons.org/ns#" xmlns:dc="http://purl.org/dc/elements/1.1/" xmlns:rdf="http://www.w3.org/1999/02/22-rdf-syntax-ns#" xmlns:svg="http://www.w3.org/2000/svg"
	 xmlns="http://www.w3.org/2000/svg" xmlns:xlink="http://www.w3.org/1999/xlink" x="0px" y="0px" viewBox="0 0 47.5 47.5"
	 style="enable-background:new 0 0 47.5 47.5;" xml:space="preserve">
<style type="text/css">
	.st0{clip-path:url(#SVGID_2_);}
	.st1{fill:#F4900C;}
	.st2{clip-path:url(#SVGID_4_);}
	.st3{fill:#FFCC4D;}
</style>
<g id="g10" transform="matrix(1.25,0,0,-1.25,0,47.5)">
	<g id="g12">
		<g>
			<defs>
				<rect id="SVGID_1_" x="-4.8" y="-4.8" width="47.5" height="47.5"/>
			</defs>
			<clipPath id="SVGID_2_">
				<use xlink:href="#SVGID_1_"  style="overflow:visible;"/>
			</clipPath>
			<g id="g14" class="st0">
				<g id="g20" transform="translate(36,18)">
					<path id="path22" class="st1" d="M0,0c0,2.1-0.4,4-1,5.9C-1.5,0.5-4.4-2.3-7.4-1c-2.8,1.2-0.9,5.9-0.8,8.2
						c0.2,3.8,0,8.2-6.9,11.8c2.9-5.5,0.3-8.9-2.3-9.1c-3-0.2-5.7,2.5-4.7,7c-3.2-2.4-3.3-6.4-2.3-9c1-2.7,0-5-2.6-5.2
						c-2.8-0.3-4.4,3-3,8.3c-2.5-3-4-6.8-4-11c0-9.4,7.6-17,17-17S0-9.4,0,0"/>
				</g>
			</g>
		</g>
	</g>
	<g id="g24">
		<g>
			<defs>
				<path id="SVGID_3_" d="M18.6,27.8c-3-0.2-5.7,2.5-4.7,7l0,0c-3.2-2.4-3.3-6.4-2.3-9l0,0c1-2.7,0-5-2.6-5.2l0,0
					c-2.8-0.3-4.4,3-3,8.3l0,0c-2.5-3-4-6.8-4-11l0,0C2,8.6,9.6,1,19,1l0,0c9.4,0,17,7.6,17,17l0,0c0,2.1-0.4,4-1,5.9l0,0
					c-0.5-5.4-3.3-8.2-6.3-6.9l0,0c-2.8,1.2-0.9,5.9-0.8,8.2l0,0c0.2,3.8,0,8.2-6.9,11.8l0,0C23.8,31.5,21.3,28,18.6,27.8"/>
			</defs>
			<clipPath id="SVGID_4_">
				<use xlink:href="#SVGID_3_"  style="overflow:visible;"/>
			</clipPath>
			<g id="g26" class="st2">
				<g id="g32" transform="translate(31,7)">
					<path id="path34" class="st3" d="M0,0c0,2.2-0.6,4.2-1.6,6c0.1-3.1-2.6-4.3-4-3.7c-2.1,0.8-1.5,2.3-2.1,5.3s-2.6,5.1-5.7,6
						c2.3-6.3-1.2-8.7-3.1-9.1c-1.9-0.4-3.8,0-4,4C-22.6,6.3-24,3.3-24,0c0-6.6,5.4-12,12-12S0-6.6,0,0"/>
				</g>
			</g>
		</g>
	</g>
</g>
</svg>
