<svg id="svg2" xmlns="http://www.w3.org/2000/svg" xmlns:xlink="http://www.w3.org/1999/xlink" viewBox="0 0 45 45"><defs><style>.cls-1{fill:none;}.cls-2{clip-path:url(#clip-path);}.cls-3{fill:#3b88c3;}.cls-4{fill:#fff;}</style><clipPath id="clip-path" transform="translate(-1.25 -1.25)"><rect class="cls-1" width="47.5" height="47.5"/></clipPath></defs><g id="g10"><g id="g12"><g class="cls-2"><g id="g14"><g id="g20"><path id="path22" class="cls-3" d="M46.25,41.25a5,5,0,0,1-5,5h-35a5,5,0,0,1-5-5v-35a5,5,0,0,1,5-5h35a5,5,0,0,1,5,5Z" transform="translate(-1.25 -1.25)"/></g><g id="g24"><path id="path26" class="cls-4" d="M21,17.5a2.67,2.67,0,0,0,2.79,2.95,2.7,2.7,0,0,0,2.83-2.95,2.71,2.71,0,0,0-2.83-2.94A2.68,2.68,0,0,0,21,17.5m-.74,11.24c0,2,1.17,3.88,3.53,3.88a3.65,3.65,0,0,0,3.53-3.88c0-2.44-1.4-3.88-3.53-3.88s-3.53,1.71-3.53,3.88m-6,.39a7.43,7.43,0,0,1,4.15-6.71,6.52,6.52,0,0,1-2.95-5.54c0-4.53,3.76-7.44,8.37-7.44s8.41,2.87,8.41,7.44a6.58,6.58,0,0,1-3,5.54,7.24,7.24,0,0,1,4.14,6.71C33.32,34.51,29,38,23.75,38c-5.35,0-9.57-3.64-9.57-8.83" transform="translate(-1.25 -1.25)"/></g></g></g></g></g></svg>