<?xml version="1.0" encoding="utf-8"?>
<!-- Generator: Adobe Illustrator 24.3.0, SVG Export Plug-In . SVG Version: 6.00 Build 0)  -->
<svg version="1.1" id="图层_1" xmlns="http://www.w3.org/2000/svg" xmlns:xlink="http://www.w3.org/1999/xlink" x="0px" y="0px"
	 viewBox="0 0 36 36" style="enable-background:new 0 0 36 36;" xml:space="preserve">
<style type="text/css">
	.st0{fill:#292F33;}
	.st1{fill:#66757F;}
	.st2{fill:#99AAB5;}
</style>
<path class="st0" d="M6,15h24v2H6V15z M21,30c0,2.2-0.8,4-3,4c-2.2,0-3-1.8-3-4s0.8-2,3-2C20.2,28,21,27.8,21,30z"/>
<path class="st1" d="M18,31c-6.6,0-10,1.3-10,3v2h20v-2C28,32.3,24.6,31,18,31z"/>
<path class="st2" d="M18,0c-5,0-9,4-9,9v7h18V9C27,4,23,0,18,0z"/>
<g>
	<circle class="st0" cx="15.5" cy="2.5" r="1.5"/>
	<circle class="st0" cx="20.5" cy="2.5" r="1.5"/>
	<circle class="st0" cx="17.5" cy="6.5" r="1.5"/>
	<circle class="st0" cx="22.5" cy="6.5" r="1.5"/>
	<circle class="st0" cx="12.5" cy="6.5" r="1.5"/>
	<circle class="st0" cx="15.5" cy="10.5" r="1.5"/>
	<circle class="st0" cx="10.5" cy="10.5" r="1.5"/>
	<circle class="st0" cx="20.5" cy="10.5" r="1.5"/>
	<circle class="st0" cx="25.5" cy="10.5" r="1.5"/>
	<circle class="st0" cx="17.5" cy="14.5" r="1.5"/>
	<circle class="st0" cx="22.5" cy="14.5" r="1.5"/>
	<circle class="st0" cx="12.5" cy="14.5" r="1.5"/>
</g>
<path class="st1" d="M9,15.1V17c0,5,4,9,9,9s9-4,9-9v-1.9H9z"/>
<path class="st1" d="M30,14c-0.6,0-1,0.4-1,1v2c0,6.1-4.9,11-11,11S7,23.1,7,17v-2c0-0.6-0.4-1-1-1s-1,0.4-1,1v2c0,7.2,5.8,13,13,13
	s13-5.8,13-13v-2C31,14.4,30.6,14,30,14z"/>
</svg>
