<?xml version="1.0" encoding="utf-8"?>
<!-- Generator: Adobe Illustrator 24.3.0, SVG Export Plug-In . SVG Version: 6.00 Build 0)  -->
<svg version="1.1"
	 id="svg2" xmlns:cc="http://creativecommons.org/ns#" xmlns:dc="http://purl.org/dc/elements/1.1/" xmlns:rdf="http://www.w3.org/1999/02/22-rdf-syntax-ns#" xmlns:svg="http://www.w3.org/2000/svg"
	 xmlns="http://www.w3.org/2000/svg" xmlns:xlink="http://www.w3.org/1999/xlink" x="0px" y="0px" viewBox="0 0 47.5 47.5"
	 style="enable-background:new 0 0 47.5 47.5;" xml:space="preserve">
<style type="text/css">
	.st0{clip-path:url(#SVGID_2_);}
	.st1{fill:#939598;}
	.st2{fill:#58595B;}
	.st3{fill:#414042;}
	.st4{fill:#55ACEE;}
</style>
<g id="g10" transform="matrix(1.25,0,0,-1.25,0,47.5)">
	<g id="g12">
		<g>
			<defs>
				<rect id="SVGID_1_" x="-4.8" y="-4.7" width="47.5" height="47.5"/>
			</defs>
			<clipPath id="SVGID_2_">
				<use xlink:href="#SVGID_1_"  style="overflow:visible;"/>
			</clipPath>
			<g id="g14" class="st0">
				<g id="g20" transform="translate(36.999,25.0825)">
					<path id="path22" class="st1" d="M0,0c0-3.8-3.1-6.9-6.9-6.9c-3.8,0-6.9,3.1-6.9,6.9c0,3.8,3.1,6.9,6.9,6.9C-3.1,6.9,0,3.8,0,0
						"/>
				</g>
				<g id="g24" transform="translate(33.8096,18.4316)">
					<path id="path26" class="st2" d="M0,0c-0.3-0.3-0.9-0.3-1.2,0l-9.1,9.1c-0.3,0.3-0.3,0.9,0,1.2l1.2,1.2c0.3,0.3,0.9,0.3,1.2,0
						l9.1-9.1c0.3-0.3,0.3-0.9,0-1.2L0,0z"/>
				</g>
				<g id="g28" transform="translate(27.7393,18.2959)">
					<path id="path30" class="st3" d="M0,0l-4.3,4.3c-0.8,0.8-2,0.7-2.7-0.1l-9.2-10.6c-1.2-1.4-1.5-3.4-0.7-4.7l-4.9-4.9l1.4-1.4
						l4.9,4.9c1.4-0.8,3.4-0.6,4.9,0.6l10.6,9.2C0.7-2,0.8-0.8,0,0"/>
				</g>
				<g id="g32" transform="translate(5,31)">
					<path id="path34" class="st4" d="M0,0v-8.1C-0.3-8-0.6-8-1-8c-1.7,0-3-0.9-3-2c0-1.1,1.3-2,3-2c1.7,0,3,0.9,3,2l0,0v6.1l5-2.2
						v-5C6.7-11,6.4-11,6-11c-1.7,0-3-0.9-3-2c0-1.1,1.3-2,3-2c1.7,0,3,0.9,3,2l0,0v9l0,0L0,0z"/>
				</g>
				<g id="g36" transform="translate(19,36)">
					<path id="path38" class="st4" d="M0,0v-8.1C-0.3-8-0.6-8-1-8c-1.7,0-3-0.9-3-2c0-1.1,1.3-2,3-2c1.7,0,3,0.9,3,2V0H0z"/>
				</g>
			</g>
		</g>
	</g>
</g>
</svg>
