<?xml version="1.0" encoding="utf-8"?>
<!-- Generator: Adobe Illustrator 24.3.0, SVG Export Plug-In . SVG Version: 6.00 Build 0)  -->
<svg version="1.1"
	 id="svg2" xmlns:cc="http://creativecommons.org/ns#" xmlns:dc="http://purl.org/dc/elements/1.1/" xmlns:rdf="http://www.w3.org/1999/02/22-rdf-syntax-ns#" xmlns:svg="http://www.w3.org/2000/svg"
	 xmlns="http://www.w3.org/2000/svg" xmlns:xlink="http://www.w3.org/1999/xlink" x="0px" y="0px" viewBox="0 0 47.5 47.5"
	 style="enable-background:new 0 0 47.5 47.5;" xml:space="preserve">
<style type="text/css">
	.st0{fill:#BDDDF4;}
	.st1{fill:#5DADEC;}
	.st2{fill:#4289C1;}
	.st3{fill:#8CCAF7;}
</style>
<g id="g10" transform="matrix(1.25,0,0,-1.25,0,47.5)">
	<g id="g12" transform="translate(14,34)">
		<path id="path14" class="st0" d="M0,0h-6l-7-9h10L0,0z"/>
	</g>
	<g id="g16" transform="translate(37,25)">
		<path id="path18" class="st1" d="M0,0l-7,9h-6l3-9H0z"/>
	</g>
	<g id="g20" transform="translate(27,25)">
		<path id="path22" class="st2" d="M0,0h10L-8-21L0,0z"/>
	</g>
	<g id="g24" transform="translate(11,25)">
		<path id="path26" class="st3" d="M0,0h-10L8-21L0,0z"/>
	</g>
	<g id="g28" transform="translate(14,34)">
		<path id="path30" class="st3" d="M0,0l-3-9h16l-3,9H0z"/>
	</g>
	<g id="g32" transform="translate(19,4)">
		<path id="path34" class="st1" d="M0,0l-8,21H8L0,0z"/>
	</g>
</g>
</svg>
