<?xml version="1.0" encoding="utf-8"?>
<!-- Generator: Adobe Illustrator 24.3.0, SVG Export Plug-In . SVG Version: 6.00 Build 0)  -->
<svg version="1.1" id="图层_1" xmlns="http://www.w3.org/2000/svg" xmlns:xlink="http://www.w3.org/1999/xlink" x="0px" y="0px"
	 viewBox="0 0 36 36" style="enable-background:new 0 0 36 36;" xml:space="preserve">
<style type="text/css">
	.st0{fill:#88C9F9;}
	.st1{fill:#77B255;}
	.st2{fill:#F5F8FA;}
	.st3{fill:#C1694F;}
	.st4{fill:#CCD6DD;}
	.st5{fill:#58595B;}
	.st6{fill:#808285;}
	.st7{fill:#A7A9AC;}
	.st8{fill:#5C913B;}
</style>
<path class="st0" d="M36,32c0,0,0,4-4,4H4c0,0-4,0-4-4V4c0-4,4-4,4-4h28c4,0,4,4,4,4V32z"/>
<path class="st1" d="M0,32c0,4,4,4,4,4h28c4,0,4-4,4-4V19H0V32z"/>
<path class="st2" d="M29.3,4.7c-0.3,0-0.5,0-0.8,0.1c-0.3-0.8-1.1-1.4-2-1.4c-1,0-1.9,0.7-2.1,1.6c-0.2-0.2-0.6-0.3-0.9-0.3
	c-0.8,0-1.5,0.7-1.5,1.5c0,0.2,0,0.4,0.1,0.6c-0.1,0-0.3-0.1-0.4-0.1c-0.9,0-1.7,0.7-1.7,1.7s0.7,1.7,1.7,1.7h7.6
	c1.5,0,2.7-1.2,2.7-2.7C32,5.9,30.8,4.7,29.3,4.7z"/>
<path class="st3" d="M22.4,19h-8.8L2.3,35.6C3.2,36,4,36,4,36h28c0.7,0,1.3-0.1,1.8-0.3L22.4,19z"/>
<path class="st4" d="M4,36h28L21.4,19h-6.8L4,36z"/>
<path class="st5" d="M6.6,36h22.8l-8.8-17h-5.2L6.6,36z"/>
<path class="st6" d="M9.2,36h17.5l-6.9-17h-3.8L9.2,36z"/>
<path class="st7" d="M28,35c0,0.6-0.4,1-1,1H9c-0.6,0-1-0.4-1-1s0.4-1,1-1h18C27.6,34,28,34.4,28,35z M26,31c0,0.6-0.4,1-1,1H11
	c-0.6,0-1-0.4-1-1s0.4-1,1-1h14C25.6,30,26,30.4,26,31z M24,27c0,0.6-0.4,1-1,1H13c-0.6,0-1-0.4-1-1s0.4-1,1-1h10
	C23.6,26,24,26.4,24,27z M22,23.7c0,0.4-0.2,0.7-0.5,0.7h-7c-0.3,0-0.5-0.3-0.5-0.7c0-0.4,0.2-0.7,0.5-0.7h7
	C21.8,23,22,23.3,22,23.7z M21,21.3c0,0.2-0.2,0.4-0.4,0.4h-5.2c-0.2,0-0.4-0.2-0.4-0.4v-0.2c0-0.2,0.2-0.4,0.4-0.4h5.2
	c0.2,0,0.4,0.2,0.4,0.4V21.3z M20,19.2c0,0.1-0.2,0.4-0.4,0.4h-3.2c-0.2,0-0.4-0.3-0.4-0.4v-0.1c0-0.1,0.2-0.2,0.4-0.2h3.2
	C19.8,19,20,19.1,20,19.2L20,19.2z"/>
<path class="st8" d="M3.6,15.1c2.1,0,3.6,2.3,4.6,2.3s1.2-0.5,2.6-0.5s1.9,2.1,3.4,2.1H0l0-2C0,17,1.3,15.1,3.6,15.1z M32.4,16.3
	c-2.1,0-3.6,1.1-4.6,1.1c-1.1,0-1.3-0.1-2.7-0.1S23.3,19,21.8,19H36l0-2C36,17,34.7,16.3,32.4,16.3z"/>
</svg>
