<?xml version="1.0" encoding="utf-8"?>
<!-- Generator: Adobe Illustrator 24.3.0, SVG Export Plug-In . SVG Version: 6.00 Build 0)  -->
<svg version="1.1" id="图层_1" xmlns="http://www.w3.org/2000/svg" xmlns:xlink="http://www.w3.org/1999/xlink" x="0px" y="0px"
	 viewBox="0 0 36 36" style="enable-background:new 0 0 36 36;" xml:space="preserve">
<style type="text/css">
	.st0{fill:#EA596E;}
	.st1{fill:#292F33;}
	.st2{fill:#DD2E44;}
	.st3{fill:#66757F;}
</style>
<path class="st0" d="M7,24c2,0,3.6,1.1,4.5,2.8l3.5-1.7c-1.4-3-4.5-5-8-5c-1.3,0-2.5,0.3-3.6,0.8l1.7,3.7C5.6,24.2,6.3,24,7,24z
	 M29,24c1.5,0,2.8,0.6,3.7,1.6l2.9-2.6c-1.6-1.8-4-3-6.7-3c-3.6,0-6.7,2.1-8.1,5.1l3.6,1.7C25.3,25.2,27,24,29,24z"/>
<path class="st1" d="M7,22c-3.9,0-7,3.1-7,7s3.1,7,7,7s7-3.1,7-7S10.9,22,7,22z M7,34c-2.8,0-5-2.2-5-5s2.2-5,5-5s5,2.2,5,5
	S9.8,34,7,34z M29,22c-3.9,0-7,3.1-7,7s3.1,7,7,7c3.9,0,7-3.1,7-7S32.9,22,29,22z M29,34c-2.8,0-5-2.2-5-5s2.2-5,5-5
	c2.8,0,5,2.2,5,5S31.8,34,29,34z"/>
<path class="st2" d="M30,28.9c0-0.1,0-0.1,0-0.2c0-0.1,0-0.1-0.1-0.2c0,0,0-0.1,0-0.1l-7-11c-0.3-0.5-0.9-0.6-1.4-0.3
	C21.2,17.3,21,17.7,21,18h-9c-0.6,0-1,0.4-1,1s0.4,1,1,1h10c0,0,0,0,0.1,0l5.1,8H18c-0.6,0-1,0.4-1,1s0.4,1,1,1h11
	c0.1,0,0.2,0,0.3-0.1c0,0,0.1,0,0.1,0c0,0,0.1,0,0.1,0c0,0,0-0.1,0.1-0.1c0.1,0,0.1-0.1,0.1-0.1c0,0,0.1-0.1,0.1-0.2
	c0-0.1,0.1-0.1,0.1-0.2c0-0.1,0-0.1,0-0.2C30,29.1,30,29,30,28.9C30,29,30,28.9,30,28.9z"/>
<path class="st2" d="M21.6,16l-2.9,8.1l-5.9-6.8c-0.4-0.4-1-0.5-1.4-0.1c-0.4,0.4-0.5,1-0.1,1.4l6.7,7.6l-0.9,2.4
	c-0.2,0.5,0.1,1.1,0.6,1.3c0.1,0,0.2,0.1,0.3,0.1c0.4,0,0.8-0.3,0.9-0.7L23.7,16H21.6z"/>
<path class="st2" d="M7,30c-0.2,0-0.3,0-0.4-0.1c-0.5-0.2-0.7-0.8-0.4-1.3l3.1-6.1c0,0,1.8-2.8,1.8-5.4c0-3.2-2.3-4-2.3-4.1
	c-0.5-0.2-0.8-0.7-0.6-1.3c0.2-0.5,0.7-0.8,1.3-0.6C9.5,11.1,13,12.3,13,17c0,3.1-1.8,6-2.1,6.5l-3,5.9C7.7,29.8,7.4,30,7,30z"/>
<path class="st1" d="M14.6,13.7c-0.1,0-0.1,0-0.2,0l-6-1c-0.5-0.1-0.9-0.6-0.8-1.2c0.1-0.5,0.6-0.9,1.2-0.8l6,1
	c0.5,0.1,0.9,0.6,0.8,1.2C15.5,13.3,15.1,13.7,14.6,13.7z M26.4,17C26.4,17,26.3,17,26.4,17l-5.8-0.7c-0.4,0-0.6-0.4-0.6-0.7
	c0-0.4,0.3-0.7,0.7-0.7c0,0,4.1,0,6-1.3c0.2-0.2,0.6-0.2,0.8,0c0.2,0.2,0.3,0.5,0.2,0.8l-0.7,2.1C27,16.8,26.7,17,26.4,17z"/>
<path class="st3" d="M20,29c0,1.1-0.9,2-2,2c-1.1,0-2-0.9-2-2s0.9-2,2-2C19.1,27,20,27.9,20,29z"/>
</svg>
