<?xml version="1.0" encoding="utf-8"?>
<!-- Generator: Adobe Illustrator 24.3.0, SVG Export Plug-In . SVG Version: 6.00 Build 0)  -->
<svg version="1.1"
	 id="svg2" xmlns:cc="http://creativecommons.org/ns#" xmlns:dc="http://purl.org/dc/elements/1.1/" xmlns:rdf="http://www.w3.org/1999/02/22-rdf-syntax-ns#" xmlns:svg="http://www.w3.org/2000/svg"
	 xmlns="http://www.w3.org/2000/svg" xmlns:xlink="http://www.w3.org/1999/xlink" x="0px" y="0px" viewBox="0 0 47.5 47.5"
	 style="enable-background:new 0 0 47.5 47.5;" xml:space="preserve">
<style type="text/css">
	.st0{clip-path:url(#SVGID_2_);}
	.st1{fill:#3B88C3;}
	.st2{fill:#FFFFFF;}
</style>
<g id="g10" transform="matrix(1.25,0,0,-1.25,0,47.5)">
	<g id="g12">
		<g>
			<defs>
				<rect id="SVGID_1_" x="-4.8" y="-4.7" width="47.5" height="47.5"/>
			</defs>
			<clipPath id="SVGID_2_">
				<use xlink:href="#SVGID_1_"  style="overflow:visible;"/>
			</clipPath>
			<g id="g14" class="st0">
				<g id="g20" transform="translate(37,5)">
					<path id="path22" class="st1" d="M0,0c0-2.2-1.8-4-4-4h-28c-2.2,0-4,1.8-4,4v28c0,2.2,1.8,4,4,4h28c2.2,0,4-1.8,4-4V0z"/>
				</g>
				<g id="g24" transform="translate(24.0859,12.0928)">
					<path id="path26" class="st2" d="M0,0c1.4,0,2.4-0.6,2.4-2c0-1.4-1.1-2-2.2-2h-10.4c-1.4,0-2.4,0.6-2.4,2
						c0,0.6,0.4,1.2,0.7,1.6c2.6,3.1,5.4,5.9,7.7,9.3c0.6,0.8,1.1,1.8,1.1,2.9c0,1.3-1,2.4-2.2,2.4c-3.6,0-1.9-5-4.8-5
						c-1.5,0-2.3,1.1-2.3,2.3c0,3.9,3.5,7,7.3,7s6.9-2.5,6.9-6.4C1.8,7.6-3,3.3-5.7,0H0z"/>
				</g>
			</g>
		</g>
	</g>
</g>
</svg>
