<?xml version="1.0" encoding="utf-8"?>
<!-- Generator: Adobe Illustrator 24.3.0, SVG Export Plug-In . SVG Version: 6.00 Build 0)  -->
<svg version="1.1" id="图层_1" xmlns="http://www.w3.org/2000/svg" xmlns:xlink="http://www.w3.org/1999/xlink" x="0px" y="0px"
	 viewBox="0 0 36 36" style="enable-background:new 0 0 36 36;" xml:space="preserve">
<style type="text/css">
	.st0{fill:#FFAC33;}
	.st1{fill:#FFCC4D;}
</style>
<path class="st0" d="M34.3,16.9l-8.9-3.3L22.1,2.7C22,2.3,21.6,2,21.2,2s-0.8,0.3-1,0.7l-3.3,10.9L8,16.9c-0.4,0.1-0.7,0.5-0.7,0.9
	c0,0.4,0.3,0.8,0.7,0.9l8.9,3.3l3.3,11.2c0.1,0.4,0.5,0.7,1,0.7c0.4,0,0.8-0.3,1-0.7l3.3-11.2l8.9-3.3c0.4-0.1,0.7-0.5,0.7-0.9
	C35,17.4,34.7,17,34.3,16.9z"/>
<path class="st1" d="M14.3,27.9L12,27l-0.9-3.3c-0.1-0.4-0.5-0.7-1-0.7s-0.8,0.3-1,0.7L8.3,27L6,27.9c-0.4,0.1-0.7,0.5-0.7,0.9
	s0.3,0.8,0.7,0.9l2.3,0.9l0.9,3.6c0.1,0.4,0.5,0.8,1,0.8c0.5,0,0.9-0.3,1-0.8l0.9-3.6l2.3-0.9c0.4-0.1,0.7-0.5,0.7-0.9
	C15,28.4,14.7,28,14.3,27.9z M10,6.2L7.6,5.4L6.8,3C6.6,2.6,6.2,2.3,5.8,2.3C5.4,2.3,5,2.6,4.9,3L4,5.4L1.7,6.2C1.3,6.4,1,6.8,1,7.2
	S1.3,8,1.7,8.1L4,9l0.9,2.4C5,11.7,5.4,12,5.8,12s0.8-0.3,0.9-0.7L7.6,9L10,8.1c0.4-0.1,0.7-0.5,0.7-0.9S10.4,6.4,10,6.2z"/>
</svg>
