<?xml version="1.0" encoding="utf-8"?>
<!-- Generator: Adobe Illustrator 24.3.0, SVG Export Plug-In . SVG Version: 6.00 Build 0)  -->
<svg version="1.1"
	 id="svg2" xmlns:cc="http://creativecommons.org/ns#" xmlns:dc="http://purl.org/dc/elements/1.1/" xmlns:rdf="http://www.w3.org/1999/02/22-rdf-syntax-ns#" xmlns:svg="http://www.w3.org/2000/svg"
	 xmlns="http://www.w3.org/2000/svg" xmlns:xlink="http://www.w3.org/1999/xlink" x="0px" y="0px" viewBox="0 0 47.5 47.5"
	 style="enable-background:new 0 0 47.5 47.5;" xml:space="preserve">
<style type="text/css">
	.st0{clip-path:url(#SVGID_2_);}
	.st1{fill:#FFCC4D;}
	.st2{fill:#FFD983;}
</style>
<g id="g10" transform="matrix(1.25,0,0,-1.25,0,47.5)">
	<g id="g12">
		<g>
			<defs>
				<rect id="SVGID_1_" x="-4.8" y="-4.8" width="47.5" height="47.5"/>
			</defs>
			<clipPath id="SVGID_2_">
				<use xlink:href="#SVGID_1_"  style="overflow:visible;"/>
			</clipPath>
			<g id="g14" class="st0">
				<g id="g20" transform="translate(29.8398,19.3623)">
					<path id="path22" class="st1" d="M0,0c-1-1-1.6-3.1-1.4-4.5l0.9-6.4c0.2-1.4-0.7-2.1-2-1.5l-5.9,2.8c-1.3,0.6-3.4,0.6-4.7,0
						l-5.8-2.8c-1.3-0.6-2.2,0-2,1.5l0.8,6.4c0.2,1.4-0.5,3.4-1.5,4.5L-26,4.6c-1,1-0.7,2.1,0.8,2.4l6.4,1.2
						c1.4,0.3,3.1,1.5,3.8,2.8l3.1,5.7c0.7,1.3,1.8,1.3,2.5,0l3.1-5.7c0.7-1.3,2.4-2.5,3.8-2.8l6.4-1.1c1.4-0.3,1.8-1.3,0.8-2.4L0,0
						z"/>
				</g>
				<g id="g24" transform="translate(10.7827,34.8188)">
					<path id="path26" class="st2" d="M0,0c1-1.4,2.4-4.9,1.7-5.4C1-6-1.9-3.5-2.9-2.1c-1,1.4-0.9,2.7-0.1,3.3C-2.2,1.7-1,1.4,0,0"
						/>
				</g>
				<g id="g28" transform="translate(30.1309,32.6948)">
					<path id="path30" class="st2" d="M0,0c-1-1.4-3.9-3.9-4.6-3.3c-0.7,0.5,0.7,4,1.7,5.4c1,1.4,2.2,1.7,3,1.1C0.9,2.7,1,1.4,0,0"
						/>
				</g>
				<g id="g32" transform="translate(17.6245,3.709)">
					<path id="path34" class="st2" d="M0,0c0,1.7,0.9,5.4,1.8,5.4c0.9,0,1.8-3.7,1.8-5.4c0-1.7-0.8-2.7-1.8-2.7C0.8-2.7,0-1.7,0,0"
						/>
				</g>
				<g id="g36" transform="translate(33.8037,12.9707)">
					<path id="path38" class="st2" d="M0,0c-1.7,0.5-4.9,2.5-4.6,3.4c0.3,0.9,4,0.6,5.7,0c1.7-0.5,2.3-1.6,2-2.6
						C2.8-0.1,1.7-0.5,0,0"/>
				</g>
				<g id="g40" transform="translate(3.083,16.4063)">
					<path id="path42" class="st2" d="M0,0c1.7,0.5,5.4,0.8,5.7,0C6-0.9,2.8-2.9,1.1-3.4C-0.5-4-1.7-3.5-2-2.6C-2.3-1.6-1.7-0.5,0,0
						"/>
				</g>
			</g>
		</g>
	</g>
</g>
</svg>
