<?xml version="1.0" encoding="utf-8"?>
<!-- Generator: Adobe Illustrator 24.3.0, SVG Export Plug-In . SVG Version: 6.00 Build 0)  -->
<svg version="1.1" id="图层_1" xmlns="http://www.w3.org/2000/svg" xmlns:xlink="http://www.w3.org/1999/xlink" x="0px" y="0px"
	 viewBox="0 0 36 36" style="enable-background:new 0 0 36 36;" xml:space="preserve">
<style type="text/css">
	.st0{fill:#F7DECE;}
	.st1{fill:#E0AA94;}
</style>
<path class="st0" d="M23.1,3.4C21.5,1.9,19.7,1,18,1C12.4,1,6,10.6,6,20c0,1,0.1,1.9,0.2,2.8C7.3,30.5,12.6,35,18,35
	c6,0,12-5.6,12-15C30,13.5,26.9,6.8,23.1,3.4z"/>
<path class="st1" d="M23.1,3.4c2.9,3.5,5.1,9,5.1,14.5c0,9-5.7,14.4-11.3,14.4c-4.5,0-9.1-3.5-10.7-9.5C7.3,30.5,12.6,35,18,35
	c6,0,12-5.6,12-15C30,13.5,26.9,6.8,23.1,3.4z"/>
</svg>
