<?xml version="1.0" encoding="utf-8"?>
<!-- Generator: Adobe Illustrator 24.3.0, SVG Export Plug-In . SVG Version: 6.00 Build 0)  -->
<svg version="1.1" id="图层_1" xmlns="http://www.w3.org/2000/svg" xmlns:xlink="http://www.w3.org/1999/xlink" x="0px" y="0px"
	 viewBox="0 0 36 36" style="enable-background:new 0 0 36 36;" xml:space="preserve">
<style type="text/css">
	.st0{fill:#CCD6DD;}
	.st1{fill:#FFFFFF;}
	.st2{fill:#8899A6;}
	.st3{fill:#E1E8ED;}
</style>
<path class="st0" d="M8.8,4.5l2,27.5h14.3l2.2-27.6L8.8,4.5z"/>
<path class="st1" d="M25,31.3l-14.1,0.2l-1-15.3h16.2L25,31.3z"/>
<path class="st2" d="M23.9,35.2H12.1c-1.7,0-2.9-1.2-3.1-3L7,4.4c0-0.6,0.4-1.2,1.1-1.3c0.7,0,1.2,0.4,1.3,1.1l2,27.7
	c0.1,0.9,0.6,0.9,0.8,0.9h11.8c0.5,0,0.7,0,0.8-0.9l2-27.6c0-0.6,0.6-1.1,1.3-1.1c0.6,0,1.1,0.6,1.1,1.3l-2,27.7
	C26.8,34.6,25.2,35.2,23.9,35.2z"/>
<path class="st2" d="M18,33h-2.6c-5.5,0-6.2-2.7-6.5-6.5C8.6,22.3,7.2,4.4,7.2,4.4l2-0.2c0,0,1.4,17.9,1.8,22.1
	c0.3,3.4,0.6,4.6,4.5,4.6H18c0.6,0,1,0.4,1,1S18.6,33,18,33z"/>
<path class="st2" d="M20.6,33H18c-0.6,0-1-0.4-1-1s0.4-1,1-1h2.6c3.9,0,4.2-1.2,4.5-4.6c0.3-4.2,1.8-22.1,1.8-22.1l2,0.2
	c0,0-1.4,17.9-1.8,22.1C26.8,30.3,26.2,33,20.6,33z"/>
<path class="st0" d="M29,4.1c0,1.7-2.7,3.1-11,3.1C9.7,7.2,7,5.8,7,4.1S9.7,1,18,1S29,2.4,29,4.1z"/>
<path class="st1" d="M28.5,4.1c-0.3-0.5-0.9-0.6-1.4-0.3c-2.1,1.4-7.3,1.6-9.1,1.5c0,0,0,0,0,0c0,0,0,0,0,0c-1.8,0-7-0.1-9.1-1.5
	C8.4,3.5,7.8,3.7,7.5,4.1S7.3,5.2,7.8,5.5c2.6,1.7,7.9,1.9,9.7,1.9c0.3,0,0.5,0,0.5,0c0.1,0,0.3,0,0.5,0c1.8,0,7.1-0.1,9.7-1.9
	C28.7,5.2,28.8,4.6,28.5,4.1z"/>
<ellipse class="st3" cx="18" cy="16.1" rx="7.8" ry="1.5"/>
<path class="st2" d="M11,31.5h14.2v1.8H11V31.5z"/>
</svg>
