<?xml version="1.0" encoding="utf-8"?>
<!-- Generator: Adobe Illustrator 24.3.0, SVG Export Plug-In . SVG Version: 6.00 Build 0)  -->
<svg version="1.1" id="图层_1" xmlns="http://www.w3.org/2000/svg" xmlns:xlink="http://www.w3.org/1999/xlink" x="0px" y="0px"
	 viewBox="0 0 36 36" style="enable-background:new 0 0 36 36;" xml:space="preserve">
<style type="text/css">
	.st0{fill:#292F33;}
	.st1{fill:#66757F;}
	.st2{fill:#E1E8ED;}
	.st3{fill:#99AAB5;}
	.st4{fill:#FFCC4D;}
</style>
<path class="st0" d="M25,35c-2.8,0-2-6-2-6c0-1.1,2.6-2,3.8-2s3.2-0.1,3.2,1C30,28,27.8,35,25,35z"/>
<path class="st1" d="M28,36c-2.8,0-2-6-2-6c0-1.1,2.6-2,3.8-2s3.2-0.1,3.2,1C33,29,30.8,36,28,36z"/>
<path class="st0" d="M14,35c-2.8,0-4-6-4-6c0-1.1,2.6-2,3.8-2s3.2-0.1,3.2,1C17,28,16.8,35,14,35z"/>
<path class="st1" d="M17,36c-2.8,0-4-6-4-6c0-1.1,2.6-2,3.8-2s3.2-0.1,3.2,1C20,29,19.8,36,17,36z"/>
<path class="st2" d="M35.8,21.4c0,7.8-4.5,11.4-14.5,11.4c-10,0-13.5-3.6-13.5-11.4c0-7.8,3.5-11.4,13.5-11.4
	C31.3,10,35.8,13.6,35.8,21.4z"/>
<path class="st3" d="M17,17.7C17,27,12.3,29,8,29c-4.3,0-7-6.6-7-11.3C1,13,3.7,12,8,12C12.3,12,17,13,17,17.7z"/>
<circle class="st0" cx="4.5" cy="20.5" r="1.5"/>
<path class="st2" d="M15.8,12.8c-1.8,3.2-2.1,2.6-7.1,4.6C5.5,18.6,0,18.2,0,13.5C0,11.6,3.7,11,7,11C10.3,11,17.4,9.7,15.8,12.8z"
	/>
<path class="st4" d="M16,13.7c3.4,2.4,5.4,6.1,3.7,11.1c-1.4,4-6.8,3.1-9.6,1.1c-2.8-2-2.6-4.8-1.7-6.3c0.9-1.5,4.2-1.2,6,0.1
	c0.9,0.7,0.3,1.6-0.7,1.1c-2.3-1.1-3,1.4-1.2,2.9c1.3,1,3.3,1,3.7-1c0.7-3.6-3.5-6.3-7.5-5.3C11,16,13.2,11.6,16,13.7z"/>
</svg>
