<?xml version="1.0" encoding="utf-8"?>
<!-- Generator: Adobe Illustrator 24.3.0, SVG Export Plug-In . SVG Version: 6.00 Build 0)  -->
<svg version="1.1" id="图层_1" xmlns="http://www.w3.org/2000/svg" xmlns:xlink="http://www.w3.org/1999/xlink" x="0px" y="0px"
	 viewBox="0 0 36 36" style="enable-background:new 0 0 36 36;" xml:space="preserve">
<style type="text/css">
	.st0{fill:#FFAC33;}
	.st1{fill:#FFCC4D;}
	.st2{fill:#E1E8ED;}
	.st3{fill:#CCD6DD;}
	.st4{fill:#292F33;}
</style>
<path class="st0" d="M7.4,7.5c-1-4,3.7-6,8-4c0.9,0.4,0.9,1.3,0,1c-3-1-6,1-4,4C12.5,10.2,8.2,10.6,7.4,7.5z"/>
<path class="st1" d="M6.1,5.8c-1-4,3.7-6,8-4c0.9,0.4,0.9,1.3,0,1c-3-1-6,1-4,4C11.2,8.4,6.9,8.9,6.1,5.8z"/>
<path class="st2" d="M5,14.8c0,4-2,4.8-2,4c0-2-1,0-1-1v-3c0-1.7,0.7-3,1.5-3S5,13.1,5,14.8z"/>
<path class="st3" d="M35.2,10.5c-0.7-1.6-2.3-2.7-4.2-2.7c-0.6,0-1,0.4-1,1s0.4,1,1,1c1,0,1.9,0.6,2.3,1.5c0.3,0.8,0.2,1.8-0.5,2.6
	c-1-1.5-2.6-2.6-4.9-2.6c-2.4,0-7.3,0.7-10.8,1.3c-0.1-0.1-0.1-0.2-0.2-0.3c-2-3-4-8.2-7-8.2c-4,0-10,5-10,9.2c0,2.5,5.7,2.9,7.5,3
	c0.7,1.4,1.4,2.9,2.2,4.3c0.1,0.2,0.2,0.4,0.3,0.7c3,6,3.1,14.5,4.5,14.5s2.5-4.9,2.5-9c0-0.2,0-0.3,0-0.4c3.1,0.6,6.6,0.3,9.7-0.6
	c1.4,5,1.8,10.1,2.8,10.1c1.3,0,2.4-8.8,2.5-13.1c1.3-1.4,2-3.2,2-4.9c0-0.6-0.1-1.2-0.2-1.8C35.4,14.3,35.9,12.3,35.2,10.5z"/>
<circle class="st4" cx="7" cy="9.3" r="1"/>
</svg>
