<?xml version="1.0" encoding="utf-8"?>
<!-- Generator: Adobe Illustrator 24.3.0, SVG Export Plug-In . SVG Version: 6.00 Build 0)  -->
<svg version="1.1"
	 id="svg2" xmlns:cc="http://creativecommons.org/ns#" xmlns:dc="http://purl.org/dc/elements/1.1/" xmlns:rdf="http://www.w3.org/1999/02/22-rdf-syntax-ns#" xmlns:svg="http://www.w3.org/2000/svg"
	 xmlns="http://www.w3.org/2000/svg" xmlns:xlink="http://www.w3.org/1999/xlink" x="0px" y="0px" viewBox="0 0 47.5 47.5"
	 style="enable-background:new 0 0 47.5 47.5;" xml:space="preserve">
<style type="text/css">
	.st0{clip-path:url(#SVGID_2_);}
	.st1{fill:#FFAC33;}
	.st2{fill:#292F33;}
	.st3{fill:#F5F8FA;}
</style>
<g id="g10" transform="matrix(1.25,0,0,-1.25,0,47.5)">
	<g id="g12">
		<g>
			<defs>
				<rect id="SVGID_1_" x="-4.8" y="-4.8" width="47.5" height="47.5"/>
			</defs>
			<clipPath id="SVGID_2_">
				<use xlink:href="#SVGID_1_"  style="overflow:visible;"/>
			</clipPath>
			<g id="g14" class="st0">
				<g id="g20" transform="translate(29.0684,5.6445)">
					<path id="path22" class="st1" d="M0,0c-2.2,0-8.5-0.8-10.1-1.8c-1.6,1-7.8,1.8-10.1,1.8c-2.6,0-1.2-1-1.2-2.3
						c0-1.3-1.4-2.3,1.2-2.3c2.2,0,8.5,0.8,10.1,1.8c1.6-1,7.8-1.8,10.1-1.8c2.6,0,1.2,1,1.2,2.3C1.2-1,2.6,0,0,0"/>
				</g>
				<g id="g24" transform="translate(32.7305,21.1338)">
					<path id="path26" class="st2" d="M0,0c-1.2,2.5-3.2,5-4.9,6.7c-2.5,5.4-6,9.1-8.8,9.1c-2.8,0-6.3-3.7-8.8-9.1
						C-24.3,5-26.2,2.5-27.5,0c-2.4-4.9-3.1-11.4-2.1-11.9c0.9-0.4,2.3,1.6,4.2,5.1c0.3-10.9,7-10.9,11.6-10.9
						c4.6,0,11.3,0.1,11.6,10.9c1.9-3.5,3.3-5.5,4.2-5.1C3.1-11.4,2.4-4.9,0,0"/>
				</g>
				<g id="g28" transform="translate(22.6748,30.0566)">
					<path id="path30" class="st3" d="M0,0c-0.9-0.6-2.2-1.2-3.7-1.2S-6.5-0.6-7.3,0C-10.7-2.1-13-7.1-13-12.8
						c0-7.7,4.2-13.9,9.3-13.9c5.1,0,9.3,6.2,9.3,13.9C5.6-7.1,3.3-2.1,0,0"/>
				</g>
				<g id="g32" transform="translate(29.4521,31)">
					<path id="path34" class="st1" d="M0,0h-5.8c-3.8,0-4.6,0.8-4.6,1.7c0,1-0.4,1.7,3.5,1.7C-1.2,3.5,1.2,0,0,0"/>
				</g>
				<g id="g36" transform="translate(17.8389,33.5166)">
					<path id="path38" class="st3" d="M0,0c0-0.6-0.5-1.2-1.2-1.2c-0.6,0-1.2,0.5-1.2,1.2c0,0.6,0.5,1.2,1.2,1.2C-0.5,1.2,0,0.6,0,0
						"/>
				</g>
			</g>
		</g>
	</g>
</g>
</svg>
