<?xml version="1.0" encoding="utf-8"?>
<!-- Generator: Adobe Illustrator 24.3.0, SVG Export Plug-In . SVG Version: 6.00 Build 0)  -->
<svg version="1.1" id="图层_1" xmlns="http://www.w3.org/2000/svg" xmlns:xlink="http://www.w3.org/1999/xlink" x="0px" y="0px"
	 viewBox="0 0 36 36" style="enable-background:new 0 0 36 36;" xml:space="preserve">
<style type="text/css">
	.st0{fill:#3B88C3;}
	.st1{fill:#55ACEE;}
	.st2{fill:#292F33;}
</style>
<path class="st0" d="M32,12c2.1-2.1,5,14.3-3,21c-2.8,2.3-6,3-8,3c-2.4,0-10,0-13,0c-7.2,0-8-4.9-8-11s0.8-11,8-11c6,0,10,2,13,4
	c5,3.3,6,3.9,8,2C32.2,17,30,14,32,12z"/>
<path class="st1" d="M34,23c-0.5,3.7-2,7.5-5,10c-2.8,2.3-6,3-8,3c-2.4,0-10,0-13,0c-4,0-6.1-1.6-7.1-4C0.2,30.1,4,33,15,33
	C29,33,32,28,34,23z"/>
<path class="st0" d="M32,14c4.1,0,4-5,4-7s-2,1-5,2s-7-2-6,0S28,14,32,14z"/>
<path class="st1" d="M10,7c0,2.2-0.9,6-2,6S6,9.2,6,7s0.9-2,2-2S10,4.8,10,7z"/>
<path class="st1" d="M8,5c0-3-6-2-6,0s3,1,4,3S8,5,8,5z M8,5c0-3,6-2,6,0s-3,1-4,3S8,5,8,5z"/>
<circle class="st2" cx="6.5" cy="25.5" r="1.5"/>
</svg>
