<?xml version="1.0" encoding="utf-8"?>
<!-- Generator: Adobe Illustrator 24.3.0, SVG Export Plug-In . SVG Version: 6.00 Build 0)  -->
<svg version="1.1" id="图层_1" xmlns="http://www.w3.org/2000/svg" xmlns:xlink="http://www.w3.org/1999/xlink" x="0px" y="0px"
	 viewBox="0 0 36 36" style="enable-background:new 0 0 36 36;" xml:space="preserve">
<style type="text/css">
	.st0{fill:#662113;}
	.st1{fill:#C1694F;}
	.st2{fill:#D99E82;}
	.st3{fill:#99AAB5;}
	.st4{fill:#CCD6DD;}
	.st5{fill:#E1E8ED;}
</style>
<path class="st0" d="M4,11v12.4c0,2,1.1,2.5,1.1,2.5L16.7,35c1.8,1.4,1.3-1.6,1.3-1.6V22L4,11z"/>
<path class="st1" d="M32,11v12.4c0,2-1.1,2.5-1.1,2.5s-9.8,7.7-11.6,9.1c-1.8,1.4-1.3-1.6-1.3-1.6V22L32,11z"/>
<path class="st2" d="M19.3,0.5c-0.8-0.6-2-0.6-2.7,0L4.6,10c-0.8,0.6-0.8,1.6,0,2.2l12,9.6c0.8,0.6,2,0.6,2.7,0l12.1-9.7
	c0.8-0.6,0.8-1.6,0-2.2L19.3,0.5z"/>
<path class="st2" d="M18,35.7c-0.6,0-1-0.5-1-1.1V21.7c0-0.6,0.4-1.1,1-1.1c0.6,0,1,0.5,1,1.1v12.9C19,35.3,18.6,35.7,18,35.7z"/>
<path class="st3" d="M28,18.8c0,1.1,0.1,1.6-1,2.4l-2.5,1.9c-1.1,0.8-1.5,0.1-1.5-1v-3c0-0.2,0-0.4-0.3-0.6
	C20.1,16.5,10.1,8.5,8.3,7.1l4.6-3.7c1.3,0.9,10.8,8.3,14.7,11.4c0.2,0.2,0.3,0.3,0.3,0.5C28,15.3,28,18.8,28,18.8z"/>
<path class="st4" d="M27.7,14.7c-4-3.1-13.5-10.5-14.7-11.4l-1.7,1.4L8.3,7.1c1.8,1.5,11.8,9.4,14.4,11.5c0.2,0.1,0.2,0.2,0.2,0.4
	l4.9-4C27.8,14.9,27.8,14.8,27.7,14.7z"/>
<path class="st4" d="M28,18.8v-3.6c0-0.2-0.1-0.4-0.3-0.5c-4-3.1-13.5-10.5-14.7-11.4L10.9,5c3.4,2.7,12.5,9.7,14.9,11.6
	C26,16.8,26,17,26,17.2V22l1-0.8C28.1,20.5,28,19.9,28,18.8z"/>
<path class="st5" d="M27.7,14.7c-4-3.1-13.5-10.5-14.7-11.4L10.9,5c3.4,2.7,12.5,9.7,14.9,11.6c0,0,0.1,0.1,0.1,0.1l2.1-1.7
	C27.8,14.9,27.8,14.8,27.7,14.7z"/>
</svg>
