<?xml version="1.0" encoding="utf-8"?>
<!-- Generator: Adobe Illustrator 24.3.0, SVG Export Plug-In . SVG Version: 6.00 Build 0)  -->
<svg version="1.1"
	 id="svg2" xmlns:cc="http://creativecommons.org/ns#" xmlns:dc="http://purl.org/dc/elements/1.1/" xmlns:rdf="http://www.w3.org/1999/02/22-rdf-syntax-ns#" xmlns:svg="http://www.w3.org/2000/svg"
	 xmlns="http://www.w3.org/2000/svg" xmlns:xlink="http://www.w3.org/1999/xlink" x="0px" y="0px" viewBox="0 0 47.5 47.5"
	 style="enable-background:new 0 0 47.5 47.5;" xml:space="preserve">
<style type="text/css">
	.st0{clip-path:url(#SVGID_2_);}
	.st1{fill:#DD2E44;}
	.st2{fill:#77B255;}
	.st3{fill:#662113;}
</style>
<g id="g10" transform="matrix(1.25,0,0,-1.25,0,47.5)">
	<g id="g12">
		<g>
			<defs>
				<rect id="SVGID_1_" x="-4.8" y="-4.8" width="47.5" height="47.5"/>
			</defs>
			<clipPath id="SVGID_2_">
				<use xlink:href="#SVGID_1_"  style="overflow:visible;"/>
			</clipPath>
			<g id="g14" class="st0">
				<g id="g20" transform="translate(25,30.0005)">
					<path id="path22" class="st1" d="M0,0c-3,0-3-1-6-1s-3,1-6,1c-4,0-9-2-9-9c0-11,6-20,10-20c3,0,3,1,5,1s2-1,5-1C3-29,9-20,9-9
						C9-2,4,0,0,0"/>
				</g>
				<g id="g24" transform="translate(19.9995,30)">
					<path id="path26" class="st2" d="M0,0c0,0,3,4,8,4c4,0,6-2,6-2s-4-3-7-3S0,0,0,0"/>
				</g>
				<g id="g28" transform="translate(18.9995,27.0005)">
					<path id="path30" class="st3" d="M0,0c-0.6,0-1,0.4-1,1c0,3.4,1.2,6.6,3.3,8.7c0.4,0.4,1,0.4,1.4,0c0.4-0.4,0.4-1,0-1.4
						C2,6.6,1,3.9,1,1C1,0.4,0.6,0,0,0"/>
				</g>
			</g>
		</g>
	</g>
</g>
</svg>
