<?xml version="1.0" encoding="utf-8"?>
<!-- Generator: Adobe Illustrator 24.1.1, SVG Export Plug-In . SVG Version: 6.00 Build 0)  -->
<svg version="1.1"
	 id="svg2" xmlns:cc="http://creativecommons.org/ns#" xmlns:dc="http://purl.org/dc/elements/1.1/" xmlns:rdf="http://www.w3.org/1999/02/22-rdf-syntax-ns#" xmlns:svg="http://www.w3.org/2000/svg"
	 xmlns="http://www.w3.org/2000/svg" xmlns:xlink="http://www.w3.org/1999/xlink" x="0px" y="0px" viewBox="0 0 47.5 47.5"
	 style="enable-background:new 0 0 47.5 47.5;" xml:space="preserve">
<style type="text/css">
	.st0{clip-path:url(#SVGID_2_);}
	.st1{fill:#99AAB5;}
	.st2{fill:#E1E8ED;}
	.st3{fill:#66757F;}
</style>
<g id="g10" transform="matrix(1.25,0,0,-1.25,0,47.5)">
	<g id="g12">
		<g>
			<defs>
				<rect id="SVGID_1_" x="-4.8" y="-4.7" width="47.5" height="47.5"/>
			</defs>
			<clipPath id="SVGID_2_">
				<use xlink:href="#SVGID_1_"  style="overflow:visible;"/>
			</clipPath>
			<g id="g14" class="st0">
				<g id="g20" transform="translate(37,19)">
					<path id="path22" class="st1" d="M0,0c0-9.9-8.1-18-18-18S-36-9.9-36,0c0,9.9,8.1,18,18,18S0,9.9,0,0"/>
				</g>
				<g id="g24" transform="translate(33,19)">
					<path id="path26" class="st2" d="M0,0c0-7.7-6.3-14-14-14S-28-7.7-28,0c0,7.7,6.3,14,14,14S0,7.7,0,0"/>
				</g>
				<g id="g28" transform="translate(20,19)">
					<path id="path30" class="st3" d="M0,0c0-0.6-0.4-1-1-1c-0.6,0-1,0.4-1,1v11c0,0.6,0.4,1,1,1c0.6,0,1-0.4,1-1V0z"/>
				</g>
				<g id="g32" transform="translate(24.25,27.7627)">
					<path id="path34" class="st3" d="M0,0c0.5-0.3,0.6-0.9,0.4-1.4l-4.5-7.8C-4.4-9.6-5-9.8-5.5-9.5C-6-9.2-6.1-8.6-5.9-8.2
						l4.5,7.8C-1.1,0.1-0.5,0.3,0,0"/>
				</g>
			</g>
		</g>
	</g>
</g>
</svg>
