<?xml version="1.0" encoding="utf-8"?>
<!-- Generator: Adobe Illustrator 24.3.0, SVG Export Plug-In . SVG Version: 6.00 Build 0)  -->
<svg version="1.1" id="图层_1" xmlns="http://www.w3.org/2000/svg" xmlns:xlink="http://www.w3.org/1999/xlink" x="0px" y="0px"
	 viewBox="0 0 36 36" style="enable-background:new 0 0 36 36;" xml:space="preserve">
<style type="text/css">
	.st0{fill:#FFCC4D;}
	.st1{fill:#664500;}
	.st2{fill:#FFFFFF;}
	.st3{fill:#5DADEC;}
</style>
<path class="st0" d="M36,18c0,9.9-8.1,18-18,18C8.1,36,0,27.9,0,18C0,8.1,8.1,0,18,0C27.9,0,36,8.1,36,18"/>
<path class="st1" d="M28.5,17.8c-0.1-0.1-1.5-3.3-4.5-3.3c-3,0-4.4,3.2-4.5,3.3c-0.1,0.2,0,0.4,0.1,0.6c0.2,0.1,0.4,0.1,0.6,0
	c0,0,1.3-0.9,3.7-0.9c2.4,0,3.7,0.9,3.7,0.9c0.1,0.1,0.2,0.1,0.3,0.1c0.1,0,0.2,0,0.3-0.1C28.5,18.2,28.6,18,28.5,17.8z M16.5,17.8
	c-0.1-0.1-1.5-3.3-4.5-3.3c-3,0-4.4,3.2-4.5,3.3c-0.1,0.2,0,0.4,0.1,0.6s0.4,0.1,0.6,0c0,0,1.3-0.9,3.7-0.9c2.4,0,3.7,0.9,3.7,0.9
	c0.1,0.1,0.2,0.1,0.3,0.1c0.1,0,0.2,0,0.3-0.1C16.5,18.2,16.5,18,16.5,17.8z M18,22c-3.6,0-6-0.4-9-1c-0.7-0.1-2,0-2,2
	c0,4,4.6,9,11,9c6.4,0,11-5,11-9c0-2-1.3-2.1-2-2C24,21.6,21.6,22,18,22z"/>
<path class="st2" d="M9,23c0,0,3,1,9,1s9-1,9-1s-2,4-9,4S9,23,9,23z"/>
<path class="st3" d="M35,11c0,2.8-2.2,5-5,5s-5-2.2-5-5s4-10,5-10S35,8.2,35,11z"/>
</svg>
