<?xml version="1.0" encoding="utf-8"?>
<!-- Generator: Adobe Illustrator 24.3.0, SVG Export Plug-In . SVG Version: 6.00 Build 0)  -->
<svg version="1.1"
	 id="svg2" xmlns:cc="http://creativecommons.org/ns#" xmlns:dc="http://purl.org/dc/elements/1.1/" xmlns:rdf="http://www.w3.org/1999/02/22-rdf-syntax-ns#" xmlns:svg="http://www.w3.org/2000/svg"
	 xmlns="http://www.w3.org/2000/svg" xmlns:xlink="http://www.w3.org/1999/xlink" x="0px" y="0px" viewBox="0 0 47.5 47.5"
	 style="enable-background:new 0 0 47.5 47.5;" xml:space="preserve">
<style type="text/css">
	.st0{fill:#CCD6DD;}
	.st1{clip-path:url(#SVGID_2_);}
	.st2{fill:#77B255;}
	.st3{fill:#292F33;}
	.st4{fill:#BBDDF5;}
	.st5{fill:#FFCC4D;}
	.st6{fill:#FFE8B6;}
	.st7{fill:#F4900C;}
	.st8{fill:#66757F;}
	.st9{fill:#5C913B;}
	.st10{fill:#3E721D;}
</style>
<g id="g10" transform="matrix(1.25,0,0,-1.25,0,47.5)">
	<path id="path12" class="st0" d="M15,17h-3v9h3V17z"/>
	<g id="g14">
		<g>
			<defs>
				<rect id="SVGID_1_" x="-4.8" y="-4.8" width="47.5" height="47.5"/>
			</defs>
			<clipPath id="SVGID_2_">
				<use xlink:href="#SVGID_1_"  style="overflow:visible;"/>
			</clipPath>
			<g id="g16" class="st1">
				<g id="g22" transform="translate(25,10.8428)">
					<path id="path24" class="st2" d="M0,0c0-2.7-1.6-4.8-3.7-4.8h-15.6c-2,0-3.5,1.6-3.3,3.5l0.6,5.2c0.2,1.9,2,3.8,3.9,4.2
						l14.6,3.2c1.9,0.4,3.4-1.4,3.4-4V0z"/>
				</g>
				<g id="g26" transform="translate(17.5347,12.833)">
					<path id="path28" class="st3" d="M0,0c-0.3-2.1,1.3-3.8,3.5-3.8h9c2.2,0,4,1.7,4,3.8v15.3c0,2.1-1.5,3.8-3.2,3.8H5.9
						c-1.8,0-3.5-1.7-3.8-3.8L0,0z"/>
				</g>
				<g id="g30" transform="translate(19.2451,12)">
					<path id="path32" class="st4" d="M0,0c-0.1-1.1,0.6-2,1.8-2h9c1.1,0,2,0.9,2,2v14c0,1.1-0.7,2-1.7,2H3.6c-0.9,0-1.8-0.9-1.9-2
						L0,0z"/>
				</g>
				<path id="path34" class="st2" d="M34,16H16V6h18V16z"/>
				<g id="g36" transform="translate(34,14)">
					<path id="path38" class="st5" d="M0,0h-31l1,2H0V0z"/>
				</g>
				<g id="g40" transform="translate(13,6)">
					<path id="path42" class="st3" d="M0,0c0-2.2-1.8-4-4-4s-4,1.8-4,4s1.8,4,4,4S0,2.2,0,0"/>
				</g>
				<g id="g44" transform="translate(11,6)">
					<path id="path46" class="st5" d="M0,0c0-1.1-0.9-2-2-2s-2,0.9-2,2s0.9,2,2,2S0,1.1,0,0"/>
				</g>
				<g id="g48" transform="translate(34,21)">
					<path id="path50" class="st2" d="M0,0v-4l-10-9l-7,1l3,10l3,2H0z"/>
				</g>
				<g id="g52" transform="translate(19.2222,10.8887)">
					<path id="path54" class="st3" d="M0,0c0,4.9,4,8.9,8.9,8.9s8.9-4,8.9-8.9s-4-8.9-8.9-8.9S0-4.9,0,0"/>
				</g>
				<g id="g56" transform="translate(33.667,10.8887)">
					<path id="path58" class="st5" d="M0,0c0-3.1-2.5-5.6-5.6-5.6c-3.1,0-5.6,2.5-5.6,5.6s2.5,5.6,5.6,5.6C-2.5,5.6,0,3.1,0,0"/>
				</g>
				<g id="g60" transform="translate(31.4443,10.8887)">
					<path id="path62" class="st6" d="M0,0c0-1.8-1.5-3.3-3.3-3.3c-1.8,0-3.3,1.5-3.3,3.3c0,1.8,1.5,3.3,3.3,3.3C-1.5,3.3,0,1.8,0,0
						"/>
				</g>
				<g id="g64" transform="translate(33.5879,30)">
					<path id="path66" class="st2" d="M0,0c-0.6,1.2-1.6,2-2.8,2h-7.3c-1.2,0-2.4-0.8-3.1-2H0z"/>
				</g>
				<g id="g68" transform="translate(30.333,10.8887)">
					<path id="path70" class="st7" d="M0,0c0-1.2-1-2.2-2.2-2.2s-2.2,1-2.2,2.2c0,1.2,1,2.2,2.2,2.2S0,1.2,0,0"/>
				</g>
				<g id="g72" transform="translate(10,6)">
					<path id="path74" class="st7" d="M0,0c0-0.6-0.4-1-1-1s-1,0.4-1,1s0.4,1,1,1S0,0.6,0,0"/>
				</g>
				<path id="path76" class="st8" d="M15,22h-3v2h3V22z"/>
				<g id="g78" transform="translate(17.0005,8.25)">
					<path id="path80" class="st9" d="M0,0c-0.1,0-0.2,0-0.3,0C-0.8,0.2-1.1,0.8-1,1.3L1,8c0.4,1.9,2.1,5.7,6,5.7h10
						c0.6,0,1-0.4,1-1s-0.4-1-1-1H7c-3.1,0-4-4.2-4-4.2L1,0.7C0.8,0.3,0.4,0,0,0"/>
				</g>
				<g id="g82" transform="translate(3.0015,8)">
					<path id="path84" class="st10" d="M0,0c0,0-0.1,0-0.1,0C-0.7,0.1-1.1,0.6-1,1.1l1,8c0.1,0.5,0.6,0.9,1.1,0.9
						C1.7,9.9,2.1,9.4,2,8.9l-1-8C0.9,0.4,0.5,0,0,0"/>
				</g>
			</g>
		</g>
	</g>
</g>
</svg>
