<?xml version="1.0" encoding="utf-8"?>
<!-- Generator: Adobe Illustrator 24.3.0, SVG Export Plug-In . SVG Version: 6.00 Build 0)  -->
<svg version="1.1" id="图层_1" xmlns="http://www.w3.org/2000/svg" xmlns:xlink="http://www.w3.org/1999/xlink" x="0px" y="0px"
	 viewBox="0 0 36 36" style="enable-background:new 0 0 36 36;" xml:space="preserve">
<style type="text/css">
	.st0{fill:#A0041E;}
	.st1{fill:#BE1931;}
	.st2{fill:#292F33;}
	.st3{fill:#DD2E44;}
</style>
<path class="st0" d="M7,20.6C7,21.3,6.4,21.9,5.6,22C4.8,22,4,21.6,4,21c-0.1-0.6,0.5-1.2,1.4-1.3C6.2,19.6,6.9,20,7,20.6z M9,23.4
	c0.1,0.8-1.8,2.5-2.6,2.7c-0.8,0.1-1.6-0.4-1.7-1.3c-0.1-0.8,0.6-1.1,1.4-1.3C7,23.4,8.9,22.5,9,23.4z M10.8,25.5
	c0.2,0.8-1.6,3.9-2.4,4.1c-0.8,0.2-1.6,0.1-1.8-0.7c-0.2-0.8,0.3-1.7,1.1-1.9C8.5,26.9,10.7,24.6,10.8,25.5z M14.7,26.3
	c0.2,0.8-1.3,4.4-2.2,4.5c-0.8,0.2-1.4,0.5-1.6-0.4c-0.2-0.8,0.3-2,1-2.6C12.6,27.4,14.5,25.5,14.7,26.3z"/>
<path class="st0" d="M3.9,18.9c0.6,0.7,1.2,1.2,0.5,1.8c-0.7,0.6-1.7,0.2-2.4-0.6c-0.6-0.7-2.2-3.4-1.5-4
	C1.2,15.5,3.3,18.2,3.9,18.9z M4.3,23.7c0.9,0.3,1.9,0.8,1.6,1.7c-0.3,0.9-1.3,1-2.2,0.7c-0.9-0.3-3.8-1.7-3.5-2.6
	C0.4,22.7,3.4,23.5,4.3,23.7z M5.5,28.3C6.4,28,7.4,28,7.6,28.9c0.3,0.9-0.3,1.5-1.2,1.8c-0.9,0.3-4.3,0.7-4.6-0.2
	C1.6,29.6,4.6,28.5,5.5,28.3z M9.8,31.5c0.1-0.9,0.6-1.7,1.6-1.6c0.9,0.1,1.3,1,1.2,2c-0.1,0.9,0.1,3.6-1.7,4
	C9.9,36.1,9.7,32.4,9.8,31.5z M29,20.6c-0.1,0.6,0.5,1.2,1.4,1.3c0.8,0.1,1.5-0.4,1.6-1c0.1-0.6-0.5-1.2-1.4-1.3
	C29.8,19.6,29.1,20,29,20.6z M27,23.4c-0.1,0.8,1.8,2.5,2.6,2.7c0.8,0.1,1.6-0.4,1.7-1.3s-0.6-1.1-1.4-1.3
	C29,23.4,27.1,22.5,27,23.4z M25.2,25.5c-0.2,0.8,1.6,3.9,2.4,4.1s1.6,0.1,1.8-0.7c0.2-0.8-0.3-1.7-1.1-1.9
	C27.5,26.9,25.3,24.6,25.2,25.5z M21.3,26.3c-0.2,0.8,1.3,4.4,2.1,4.5c0.8,0.2,1.4,0.5,1.6-0.4c0.2-0.8-0.3-2-1-2.6
	C23.4,27.4,21.5,25.5,21.3,26.3z"/>
<path class="st0" d="M32.1,18.9c-0.6,0.7-1.2,1.2-0.5,1.8c0.7,0.6,1.7,0.2,2.4-0.6c0.6-0.7,2.2-3.4,1.5-4
	C34.8,15.5,32.7,18.2,32.1,18.9z M31.7,23.7c-0.9,0.3-1.9,0.8-1.6,1.7c0.3,0.9,1.3,1,2.2,0.7c0.9-0.3,3.8-1.7,3.5-2.6
	S32.6,23.5,31.7,23.7z M30.5,28.3c-0.9-0.3-1.9-0.3-2.2,0.6c-0.3,0.9,0.3,1.5,1.2,1.8c0.9,0.3,4.3,0.7,4.6-0.2
	C34.4,29.6,31.4,28.5,30.5,28.3z M26.2,31.5c-0.1-0.9-0.6-1.7-1.6-1.6c-0.9,0.1-1.3,1-1.2,2c0.1,0.9-0.1,3.6,1.7,4
	C26.1,36.1,26.3,32.4,26.2,31.5z M3.1,13.9C2.8,13,3.1,12,4,11.6c0.9-0.4,1.9,0,2.2,0.9c0.4,0.9,2.7,5.6,1.8,6
	C7.2,18.9,3.5,14.7,3.1,13.9z"/>
<path class="st0" d="M4,12c1.2,3,8.3-3.3,8.8-6.3c0.5-2.9-0.3-4.2-0.7-4.5c-0.4-0.3,0.1,1.4-1.2,3.3C9.9,6,3.2,10,4,12z M32.9,13.9
	c0.4-0.9,0-1.9-0.9-2.2c-0.9-0.4-1.9,0-2.2,0.9c-0.4,0.9-2.6,5.6-1.8,6C28.8,18.9,32.5,14.7,32.9,13.9z"/>
<path class="st0" d="M32,12c-1.2,3-8.3-3.3-8.8-6.3c-0.5-2.9,0.3-4.2,0.7-4.5c0.4-0.3-0.1,1.4,1.2,3.3C26.1,6,32.8,10,32,12z"/>
<path class="st1" d="M6,22c0-2,2-10,12-10s12,8,12,10c-5,3-5.4,7-12,7S12,25,6,22z M4.3,12.2C1.2,12.8,4,4.1,6.2,2.1
	c2.2-2,4.7-1.9,5.1-1.7S10.1,3,9.6,4.6C9.3,5.4,6.5,11.8,4.3,12.2z M31.7,12.2c3.2,0.5,0.4-8.1-1.9-10.1s-4.7-1.9-5.1-1.7
	s1.2,2.6,1.8,4.2C26.7,5.4,29.5,11.8,31.7,12.2z"/>
<path class="st0" d="M17,12.1c0.3,1.3,0,1.6-0.8,1.8c-0.8,0.2-1.7,0.3-2.1-1.1c-0.3-1.3,0-2.6,0.8-2.8C15.8,9.9,16.7,10.8,17,12.1z
	 M21.9,12.9c-0.3,1.3-1.3,1.3-2.1,1.1c-0.8-0.2-1.2-0.4-0.8-1.8c0.3-1.3,1.3-2.3,2.1-2.1C21.8,10.3,22.2,11.5,21.9,12.9z"/>
<circle class="st2" cx="14.5" cy="9.5" r="1.5"/>
<circle class="st2" cx="21.5" cy="9.5" r="1.5"/>
<path class="st3" d="M9.1,21.5c-0.1,0.2-3.1,0.7-2.3-0.7S9.2,21.3,9.1,21.5z"/>
<path class="st3" d="M9.9,20.1c-0.2,0.2-3.2,0.4-1.9-1.4C9.2,16.9,10.2,19.8,9.9,20.1z"/>
<path class="st3" d="M11.7,18.7c-0.4,0.2-3.5-0.5-1.4-1.9C12.1,15.4,12.2,18.4,11.7,18.7z"/>
<path class="st3" d="M14.1,17.4c-1,0.3-3.4-1.3-0.9-2.1C15.7,14.4,15.1,17.1,14.1,17.4z M26.9,21.5c0.1,0.2,3.1,0.7,2.3-0.7
	C28.4,19.3,26.7,21.3,26.9,21.5z"/>
<path class="st3" d="M26,20.1c0.2,0.2,3.2,0.4,1.9-1.4C26.7,16.9,25.7,19.8,26,20.1z"/>
<path class="st3" d="M24.3,18.7c0.4,0.2,3.5-0.5,1.4-1.9C23.8,15.4,23.8,18.4,24.3,18.7z"/>
<path class="st3" d="M21.8,17.4c1,0.3,3.4-1.3,0.9-2.1C20.2,14.4,20.8,17.1,21.8,17.4z"/>
<path class="st0" d="M26.8,16.2c0,0.4-2.2-2.2-8.8-2.2c-6.7,0-8.8,2.7-8.8,2.2s2.8-3.8,8.8-3.8S26.8,15.8,26.8,16.2z"/>
<path class="st3" d="M10.8,24.4c0-0.4,1.8,2.2,7.2,2.2s7.2-2.7,7.2-2.2S23,28.2,18,28.2S10.8,24.8,10.8,24.4z"/>
</svg>
